<svg width="20" height="15" viewBox="0 0 20 15" fill="none" xmlns="http://www.w3.org/2000/svg">
<path d="M18.7915 0H1.87484C1.55437 0 1.24702 0.127306 1.02042 0.353913C0.79381 0.580519 0.666504 0.887863 0.666504 1.20833V13.2917C0.666504 13.6121 0.79381 13.9195 1.02042 14.1461C1.24702 14.3727 1.55437 14.5 1.87484 14.5H18.7915C19.112 14.5 19.4193 14.3727 19.6459 14.1461C19.8725 13.9195 19.9998 13.6121 19.9998 13.2917V1.20833C19.9998 0.887863 19.8725 0.580519 19.6459 0.353913C19.4193 0.127306 19.112 0 18.7915 0ZM17.8611 13.2917H2.87775L7.10692 8.9175L6.23692 8.07771L1.87484 12.5908V2.12667L9.38463 9.60021C9.61103 9.82526 9.91728 9.95158 10.2365 9.95158C10.5557 9.95158 10.862 9.82526 11.0884 9.60021L18.7915 1.93938V12.5123L14.3448 8.06563L13.493 8.9175L17.8611 13.2917ZM2.6663 1.20833H17.8128L10.2365 8.74229L2.6663 1.20833Z" fill="black"/>
</svg>
