<svg width="108" height="20" viewBox="0 0 108 20" fill="none" xmlns="http://www.w3.org/2000/svg"><path d="M35.095 9.364c-.92-2.544-3.18-4.144-5.913-4.144-3.68 0-6.492 2.754-6.492 6.452 0 3.725 2.812 6.48 6.491 6.48 2.734 0 4.994-1.6 5.914-4.145h-2.917c-.631 1.023-1.735 1.574-2.996 1.574-2.182 0-3.706-1.705-3.706-3.909 0-2.23 1.524-3.882 3.706-3.882 1.261 0 2.365.551 2.996 1.574h2.917zM44.02 5.22c-3.76 0-6.572 2.754-6.572 6.479 0 3.698 2.813 6.452 6.571 6.452 3.706 0 6.545-2.754 6.545-6.452 0-3.725-2.839-6.48-6.545-6.48zm0 10.36c-2.183 0-3.786-1.678-3.786-3.881 0-2.256 1.603-3.909 3.785-3.909 2.208 0 3.759 1.653 3.759 3.909 0 2.203-1.551 3.882-3.759 3.882zM54.815 2.492V5.56h-2.26V8h2.26v6.006c0 2.308 1.55 3.803 4.626 3.803h1.997v-2.44h-1.97c-1.236 0-1.867-.602-1.867-1.835V8h3.837V5.56h-3.837V2.493h-2.786zm9.808 3.068v12.25h2.786V5.56h-2.786zm-.184-2.386h3.128V0H64.44v3.174zm25.12 14.636h2.786v-7.318c0-3.174-2.103-5.272-5.335-5.272-2.103 0-3.628.892-4.574 2.072-.92-1.39-2.392-2.072-4.468-2.072-1.682 0-3.023.656-3.732 1.469V5.56H71.45v12.25h2.786v-6.348c0-2.23 1.55-3.673 3.311-3.673 1.998 0 2.944 1.18 2.944 3.07v6.95h2.786v-6.295c0-2.308 1.577-3.725 3.338-3.725 1.998 0 2.944 1.18 2.944 3.07v6.95zm12.339-2.23c-1.866 0-3.338-1.153-3.653-2.91h9.699c.078-.394.052-.71.052-1.102 0-3.568-2.576-6.348-6.229-6.348-3.758 0-6.413 2.806-6.413 6.452 0 3.751 2.786 6.48 6.544 6.48 2.708 0 4.994-1.496 5.914-3.909h-3.022c-.605.918-1.656 1.338-2.892 1.338zm-.131-7.868c1.787 0 2.996 1.075 3.285 2.728h-6.754c.236-1.653 1.682-2.728 3.469-2.728z" fill="#000"/><circle cx="8.168" cy="11.706" r="8.168" fill="#000"/></svg>