<svg xmlns="http://www.w3.org/2000/svg" xmlns:xlink="http://www.w3.org/1999/xlink"><symbol id="doc" viewBox="0 0 20 28"><path d="M19.7 7.3l-7-7c-.2-.2-.4-.3-.7-.3H2C.9 0 0 .9 0 2v24c0 1.1.9 2 2 2h16c1.1 0 2-.9 2-2V8c0-.3-.1-.5-.3-.7zM12 2.4L17.6 8H12V2.4zM18 26H2V2h8v6c0 1.1.9 2 2 2h6v16z" fill="#3773E0"/><path d="M4 20h12v2H4v-2zm0-6h12v2H4v-2z" fill="#3773E0"/></symbol><symbol id="letter" viewBox="0 0 20 15"><path d="M18.791 0H1.875A1.208 1.208 0 00.667 1.208v12.084A1.208 1.208 0 001.875 14.5H18.79A1.208 1.208 0 0020 13.292V1.208A1.208 1.208 0 0018.79 0zm-.93 13.292H2.878l4.229-4.374-.87-.84-4.362 4.513V2.127L9.385 9.6a1.208 1.208 0 001.703 0l7.704-7.66v10.572l-4.447-4.446-.852.851 4.368 4.375zM2.666 1.208h15.147l-7.576 7.534-7.57-7.534z" fill="#000"/></symbol></svg>