<svg width="108" height="20" viewBox="0 0 108 20" fill="none" xmlns="http://www.w3.org/2000/svg">
<path d="M35.0952 9.36416C34.1753 6.81984 31.9149 5.2198 29.1815 5.2198C25.5018 5.2198 22.6895 7.97396 22.6895 11.6724C22.6895 15.3971 25.5018 18.1513 29.1815 18.1513C31.9149 18.1513 34.1753 16.5512 35.0952 14.0069H32.1778C31.547 15.0299 30.4431 15.5807 29.1815 15.5807C26.9999 15.5807 25.4755 13.8757 25.4755 11.6724C25.4755 9.44285 26.9999 7.79035 29.1815 7.79035C30.4431 7.79035 31.547 8.34119 32.1778 9.36416H35.0952Z" fill="black"/>
<path d="M44.0191 5.2198C40.2605 5.2198 37.4482 7.97396 37.4482 11.6986C37.4482 15.3971 40.2605 18.1513 44.0191 18.1513C47.725 18.1513 50.5636 15.3971 50.5636 11.6986C50.5636 7.97396 47.725 5.2198 44.0191 5.2198ZM44.0191 15.5807C41.8375 15.5807 40.2342 13.902 40.2342 11.6986C40.2342 9.44285 41.8375 7.79035 44.0191 7.79035C46.2269 7.79035 47.7776 9.44285 47.7776 11.6986C47.7776 13.902 46.2269 15.5807 44.0191 15.5807Z" fill="black"/>
<path d="M54.815 2.49186V5.56079H52.5546V8.00019H54.815V14.0069C54.815 16.3151 56.3657 17.8103 59.4408 17.8103H61.4384V15.3709H59.4671C58.2318 15.3709 57.601 14.7676 57.601 13.5348V8.00019H61.4384V5.56079H57.601V2.49186H54.815Z" fill="black"/>
<path d="M64.6234 5.56079V17.8103H67.4094V5.56079H64.6234ZM64.4394 3.17385H67.5671V0H64.4394V3.17385Z" fill="black"/>
<path d="M89.559 17.8103H92.345V10.4921C92.345 7.31821 90.2423 5.2198 87.0095 5.2198C84.9068 5.2198 83.3824 6.11162 82.4362 7.29198C81.5162 5.90178 80.0444 5.2198 77.968 5.2198C76.2858 5.2198 74.9454 5.87555 74.2357 6.68869V5.56079H71.4497V17.8103H74.2357V11.4626C74.2357 9.23301 75.7865 7.79035 77.5474 7.79035C79.545 7.79035 80.4912 8.97071 80.4912 10.8593V17.8103H83.2772V11.515C83.2772 9.20678 84.8542 7.79035 86.6152 7.79035C88.6128 7.79035 89.559 8.97071 89.559 10.8593V17.8103Z" fill="black"/>
<path d="M101.898 15.5807C100.032 15.5807 98.5604 14.4266 98.245 12.6692H107.944C108.022 12.2757 107.996 11.9609 107.996 11.5675C107.996 8.00019 105.42 5.2198 101.767 5.2198C98.0085 5.2198 95.3538 8.02642 95.3538 11.6724C95.3538 15.4233 98.1399 18.1513 101.898 18.1513C104.606 18.1513 106.892 16.6561 107.812 14.243H104.79C104.185 15.161 103.134 15.5807 101.898 15.5807ZM101.767 7.71166C103.554 7.71166 104.763 8.7871 105.052 10.4396H98.2976C98.5341 8.7871 99.9797 7.71166 101.767 7.71166Z" fill="black"/>
<circle cx="8.16807" cy="11.7059" r="8.16807" fill="black"/>
</svg>
